<svg xmlns="http://www.w3.org/2000/svg" viewBox="0 0 140 140" width="140" height="140">
  <!-- ねこ（笑顔） -->
  <path d="M40 40 L36 16 L60 34 Z" fill="#8f969c"/>
  <path d="M100 40 L104 16 L80 34 Z" fill="#8f969c"/>
  <path d="M42 38 L40 22 L55 33 Z" fill="#f1b6c0"/>
  <path d="M98 38 L100 22 L85 33 Z" fill="#f1b6c0"/>
  <ellipse cx="70" cy="74" rx="44" ry="44" fill="#9aa1a7"/>
  <ellipse cx="70" cy="92" rx="26" ry="24" fill="#f3f3f3"/>
  <ellipse cx="55" cy="60" rx="5.5" ry="6.5" fill="#2f7d5b"/>
  <ellipse cx="85" cy="60" rx="5.5" ry="6.5" fill="#2f7d5b"/>
  <circle cx="53.5" cy="58" r="1.7" fill="#fff"/><circle cx="83.5" cy="58" r="1.7" fill="#fff"/>
  <ellipse cx="43" cy="75" rx="6" ry="3.4" fill="#f1a6b4" opacity="0.6"/><ellipse cx="97" cy="75" rx="6" ry="3.4" fill="#f1a6b4" opacity="0.6"/>
  <path d="M70 80 l-4 4 h8 Z" fill="#e58aa0"/>
  <path d="M70 84 Q64 92 58 88 M70 84 Q76 92 82 88" stroke="#6f767c" stroke-width="2.4" fill="none" stroke-linecap="round"/>
  <g stroke="#cfd4d8" stroke-width="1.4" stroke-linecap="round">
    <path d="M58 86 L40 82 M58 90 L40 92 M82 86 L100 82 M82 90 L100 92"/>
  </g>
</svg>
