<svg xmlns="http://www.w3.org/2000/svg" viewBox="0 0 140 140" width="140" height="140">
  <!-- パンダ（笑顔） -->
  <circle cx="40" cy="38" r="14" fill="#2b2b2b"/>
  <circle cx="100" cy="38" r="14" fill="#2b2b2b"/>
  <ellipse cx="70" cy="76" rx="46" ry="46" fill="#fbfbfb"/>
  <ellipse cx="55" cy="62" rx="11" ry="13" fill="#2b2b2b" transform="rotate(-18 55 62)"/>
  <ellipse cx="85" cy="62" rx="11" ry="13" fill="#2b2b2b" transform="rotate(18 85 62)"/>
  <circle cx="56" cy="62" r="4.5" fill="#fff"/>
  <circle cx="84" cy="62" r="4.5" fill="#fff"/>
  <circle cx="56.5" cy="63" r="2.6" fill="#1a1a1a"/>
  <circle cx="83.5" cy="63" r="2.6" fill="#1a1a1a"/>
  <circle cx="55.2" cy="61" r="1.1" fill="#fff"/><circle cx="82.5" cy="61" r="1.1" fill="#fff"/>
  <ellipse cx="42" cy="80" rx="6" ry="3.4" fill="#f6b9c4" opacity="0.7"/><ellipse cx="98" cy="80" rx="6" ry="3.4" fill="#f6b9c4" opacity="0.7"/>
  <ellipse cx="70" cy="82" rx="5.5" ry="4" fill="#2b2b2b"/>
  <path d="M70 86 V90" stroke="#6b6b6b" stroke-width="2" stroke-linecap="round"/>
  <path d="M61 90 Q70 100 79 90" stroke="#6b6b6b" stroke-width="2.6" fill="none" stroke-linecap="round"/>
</svg>
